<?xml version="1.0" encoding="UTF-8"?><svg id="Logo" xmlns="http://www.w3.org/2000/svg" viewBox="0 0 200 31.89"><defs><style>.cls-1{fill:#fff;}.cls-2{fill:#0affb1;}</style></defs><g id="Logo_Branco_Verde"><g><path class="cls-1" d="M11.46,14.97v-.09c1.07-.44,1.86-1.17,2.38-2.17,.52-1,.78-2.3,.78-3.9v-1.24c0-2.42-.58-4.22-1.73-5.38-1.15-1.17-2.99-1.75-5.51-1.75H0V25.08H4.89v-7.59h2.18c1.13,0,1.93,.27,2.42,.82,.49,.55,.73,1.53,.73,2.95v2.7c0,1.12-.21,1.91-.62,2.37-.42,.46-1.05,.69-1.91,.69h-1.32v4.43h1.32c2.43,0,4.27-.63,5.53-1.88,1.26-1.25,1.89-3.08,1.89-5.47v-2.66c0-3.48-1.21-5.64-3.64-6.47Zm-1.73-5.18c0,1.18-.24,2.02-.73,2.52-.49,.5-1.22,.75-2.2,.75h-1.91V4.87h2.35c.86,0,1.49,.25,1.89,.75,.4,.5,.6,1.31,.6,2.44v1.73Z"/><polygon class="cls-1" points="21.72 25.08 26.61 25.08 26.61 18.25 32.52 .44 27.77 .44 24.43 11.83 24.34 11.83 21.01 .44 15.82 .44 21.72 18.25 21.72 25.08"/><polygon class="cls-1" points="33.63 .44 33.63 4.87 38.74 4.87 38.74 25.08 43.63 25.08 43.63 4.87 48.73 4.87 48.73 .44 33.63 .44"/><g><polygon class="cls-1" points="51.09 .44 51.09 25.08 55.98 25.08 55.98 25.08 55.98 17.5 62.68 17.5 62.68 13.07 55.98 13.07 55.98 4.87 64.42 4.87 64.42 .44 51.09 .44"/><rect class="cls-1" x="57.45" y="27.02" width="6.96" height="4.43"/></g><path class="cls-1" d="M68.28,29.88c-1.21-1.34-1.82-3.27-1.82-5.78v-1.77h4.62v2.13c0,2.01,.84,3.01,2.53,3.01,.83,0,1.46-.24,1.89-.73,.43-.49,.64-1.28,.64-2.37,0-1.3-.3-2.44-.89-3.43-.59-.99-1.69-2.18-3.29-3.57-2.01-1.77-3.42-3.37-4.22-4.81-.8-1.43-1.2-3.05-1.2-4.85,0-2.45,.62-4.35,1.87-5.69,1.24-1.34,3.05-2.02,5.42-2.02s4.11,.67,5.31,2.02c1.2,1.34,1.8,3.27,1.8,5.78v1.28h-4.62v-1.59c0-1.06-.21-1.84-.62-2.33-.42-.49-1.02-.73-1.82-.73-1.63,0-2.44,.99-2.44,2.97,0,1.12,.3,2.17,.91,3.14,.61,.97,1.71,2.16,3.31,3.54,2.04,1.77,3.45,3.38,4.22,4.83,.77,1.45,1.15,3.14,1.15,5.09,0,2.54-.63,4.49-1.89,5.85-1.26,1.36-3.09,2.04-5.49,2.04s-4.16-.67-5.38-2.02Z"/><g><rect class="cls-1" x="107.96" y=".44" width="6.56" height="4.43"/><polygon class="cls-1" points="106.49 6.81 106.49 6.81 101.6 6.81 101.6 31.45 106.49 31.45 106.49 17.94 112.79 17.94 112.79 13.51 106.49 13.51 106.49 6.81"/></g><path class="cls-1" d="M126.57,.44V24.45c0,1.06-.22,1.83-.64,2.3-.43,.47-1.04,.71-1.84,.71s-1.41-.24-1.84-.71c-.43-.47-.64-1.24-.64-2.3V6.81h-4.89V24.1c0,2.51,.62,4.44,1.86,5.78,1.24,1.34,3.05,2.02,5.42,2.02s4.18-.67,5.42-2.02c1.24-1.34,1.87-3.27,1.87-5.78V.44h-4.71Z"/><path class="cls-1" d="M138.56,4.87h-5.11V.44h15.1V4.87h-5.11V31.45h-4.89V4.87Z"/><path class="cls-1" d="M152.6,29.88c-1.24-1.34-1.87-3.27-1.87-5.78V.44h4.89V24.45c0,1.06,.21,1.83,.64,2.3s1.04,.71,1.84,.71,1.41-.24,1.84-.71c.43-.47,.64-1.24,.64-2.3V.44h4.71V24.1c0,2.51-.62,4.44-1.87,5.78-1.24,1.34-3.05,2.02-5.42,2.02s-4.18-.67-5.42-2.02Z"/><path class="cls-1" d="M183.39,29.83c-.06-.55-.09-1.26-.09-2.15v-5.45c0-1.83-.24-3.29-.73-4.39s-1.33-1.82-2.51-2.17v-.09c2.13-.86,3.2-2.89,3.2-6.11v-1.91c0-2.42-.58-4.22-1.73-5.38-1.15-1.17-2.99-1.75-5.51-1.75h-.88V4.87h.74c.86,0,1.49,.25,1.89,.75,.4,.5,.6,1.31,.6,2.44v2.39c0,1.18-.24,2.02-.73,2.52-.49,.5-1.22,.75-2.2,.75h-1.78V6.81h-4.89V31.45h4.89v-13.29h1.69c1.13,0,1.92,.28,2.38,.84,.46,.56,.69,1.55,.69,2.97v5.67c0,1.15,.03,1.95,.09,2.39,.06,.44,.18,.92,.36,1.42h4.98c-.24-.53-.39-1.07-.44-1.62Z"/><g><rect class="cls-1" x="193.04" y=".44" width="6.96" height="4.43"/><polygon class="cls-1" points="191.56 17.5 198.27 17.5 198.27 13.07 191.56 13.07 191.56 6.81 191.56 6.81 186.67 6.81 186.67 31.45 200 31.45 200 27.02 191.56 27.02 191.56 17.5"/></g></g><g><path class="cls-2" d="M92,25.82h-9.33v-4.43L91.56,.44h5.33V21.39h2.31v4.43h-2.31v5.63h-4.89v-5.63Zm0-4.43V9.3h-.09l-4.8,12.09h4.89Z"/><rect class="cls-2" x="116.7" y=".44" width="4.89" height="4.89"/><rect class="cls-2" x="168.77" y=".44" width="4.89" height="4.89"/><rect class="cls-2" x="186.67" y=".44" width="4.89" height="4.89"/><rect class="cls-2" x="101.6" y=".44" width="4.89" height="4.89"/><rect class="cls-2" x="51.09" y="26.56" width="4.89" height="4.89"/><rect class="cls-2" x="38.74" y="26.56" width="4.89" height="4.89"/><rect class="cls-2" y="26.56" width="4.89" height="4.89"/><rect class="cls-2" x="21.72" y="26.56" width="4.89" height="4.89"/></g></g></svg>